<svg class="bio-svg" viewBox="0 0 300 300" role="img" aria-label="Endomorfo">
  <rect x="10" y="10" width="280" height="220" rx="18" fill="#f4f4f4"/>
  <path d="M150,45 C95,45 70,85 70,150 C70,215 95,255 150,255 C205,255 230,215 230,150 C230,85 205,45 150,45 Z" fill="none" stroke="#111" stroke-width="5" stroke-dasharray="10 10" opacity="0.65"/>
  <!-- simplified silhouettes -->
  <g fill="#b7795a">
    <circle cx="120" cy="88" r="18"/><rect x="105" y="106" width="30" height="68" rx="14"/>
    <rect x="92" y="118" width="20" height="60" rx="10"/><rect x="128" y="118" width="20" height="60" rx="10"/>
    <rect x="108" y="174" width="16" height="48" rx="8"/><rect x="126" y="174" width="16" height="48" rx="8"/>
    <circle cx="190" cy="88" r="18"/><rect x="175" y="106" width="30" height="68" rx="14"/>
    <rect x="162" y="118" width="20" height="60" rx="10"/><rect x="198" y="118" width="20" height="60" rx="10"/>
    <rect x="178" y="174" width="16" height="48" rx="8"/><rect x="196" y="174" width="16" height="48" rx="8"/>
  </g>
  <rect x="60" y="238" width="180" height="44" rx="8" fill="#ff4d4f"/>
  <text x="150" y="268" text-anchor="middle" font-size="22" font-family="Arial, sans-serif" fill="#fff" font-weight="700">Endomorfo</text>
</svg>